<?xml version="1.0" encoding="utf-8"?>
<!-- Generator: Adobe Illustrator 23.0.0, SVG Export Plug-In . SVG Version: 6.00 Build 0)  -->
<!DOCTYPE svg PUBLIC "-//W3C//DTD SVG 1.1//EN" "http://www.w3.org/Graphics/SVG/1.1/DTD/svg11.dtd" [
	<!ENTITY ns_extend "http://ns.adobe.com/Extensibility/1.0/">
	<!ENTITY ns_ai "http://ns.adobe.com/AdobeIllustrator/10.0/">
	<!ENTITY ns_graphs "http://ns.adobe.com/Graphs/1.0/">
	<!ENTITY ns_vars "http://ns.adobe.com/Variables/1.0/">
	<!ENTITY ns_imrep "http://ns.adobe.com/ImageReplacement/1.0/">
	<!ENTITY ns_sfw "http://ns.adobe.com/SaveForWeb/1.0/">
	<!ENTITY ns_custom "http://ns.adobe.com/GenericCustomNamespace/1.0/">
	<!ENTITY ns_adobe_xpath "http://ns.adobe.com/XPath/1.0/">
]>
<svg version="1.1" id="BACKGROUND" xmlns:x="&ns_extend;" xmlns:i="&ns_ai;" xmlns:graph="&ns_graphs;"
	 xmlns="http://www.w3.org/2000/svg" xmlns:xlink="http://www.w3.org/1999/xlink" x="0px" y="0px" viewBox="0 0 1792 1197.4"
	 style="enable-background:new 0 0 1792 1197.4;" xml:space="preserve">
<style type="text/css">
	.st0{fill:url(#SVGID_1_);}
	.st1{fill:#6A0DAD;}
</style>
<metadata>
	<sfw  xmlns="&ns_sfw;">
		<slices></slices>
		<sliceSourceBounds  bottomLeftOrigin="true" height="1195.8" width="1791" x="0.4" y="0.3"></sliceSourceBounds>
	</sfw>
</metadata>
<title>Mesa de trabajo 1</title>
<g>
	
		<linearGradient id="SVGID_1_" gradientUnits="userSpaceOnUse" x1="1791.4399" y1="598.8" x2="0.44" y2="598.8" gradientTransform="matrix(-1 0 0 -1 1791.8799 1198)">
		<stop  offset="0" style="stop-color:#C7C7C7"/>
		<stop  offset="1" style="stop-color:#FFFFFF"/>
	</linearGradient>
	<path class="st0" d="M825,1.3c16,28.2,24.3,60.6,22.1,93c-3.9,56.2-34.9,114.1-12.9,165.9c3.8,9,9.2,17.5,17.2,23
		c15.6,10.9,37.1,8.1,54.7,0.8s33.4-18.6,51.6-24.3c34.7-10.9,70.6,11.5,112.5,35.6c13.9,7.9,27.2,16.8,39.9,26.5
		c42.5,33.7,148.5,153.4,108,296.4c-23.9,84.5-91.8,152-159,173.4c-14.9,4.7-33.7,11.2-72.6,16c-54.9,6.9-81.1-2.8-124.4,19.5
		c-72.1,37.1-123.9,103.2-182.1,159.7s-132.7,107.1-213.5,99.6c-84.4-7.9-149.8-76.8-196.1-147.8c-39.1-59.9-74.5-128-138.2-160.3
		c-40.5-20.5-86.1-23.2-131.9-19l0,437.8h1791V1.3L825,1.3z"/>
	<path class="st1" d="M864.7,263c2.1,0.9,4.4,1.4,6.7,1.5c2.3,0.1,4.6-0.1,6.9-0.6c2.3-0.4,4.6-1,6.8-1.8c1.1-0.3,2.3-0.5,3.5-0.6
		c1.2-0.2,2.3-0.5,3.5-0.7l3.5-1c1.2-0.3,2.3-0.7,3.5-1.1c4.7-1.6,9.3-3.4,13.8-5.4c9.2-4.2,18.1-8.8,26.8-14
		c9.4-5.6,19.5-9.8,30.1-12.4c10.7-2.6,21.7-3.6,32.6-2.8c1.4,0.1,2.7,0.3,4.1,0.4s2.7,0.3,4.1,0.5c2.7,0.5,5.4,0.9,8,1.5
		c5.3,1.2,10.5,2.7,15.6,4.6c5,1.9,10,4.1,14.8,6.5c2.4,1.3,4.8,2.5,7.1,3.9l1.7,1c0.6,0.3,1.1,0.7,1.7,1c1.2,0.6,2.4,1.3,3.4,2.2
		c4,3.6,7.8,7.5,11.3,11.5c3.5,4,6.7,8.3,9.5,12.8c-8.7-5.5-17.8-10.3-27.3-14.4c-0.6-0.2-1.1-0.5-1.6-0.9c-0.5-0.3-1-0.7-1.5-1.1
		c-1-0.7-2.1-1.3-3.2-1.9c-2.1-1.3-4.3-2.4-6.5-3.6c-4.4-2.2-8.9-4.2-13.5-5.9c-4.6-1.7-9.3-3.1-14-4.2c-2.4-0.6-4.8-0.9-7.2-1.4
		c-1.2-0.3-2.4-0.3-3.6-0.5s-2.4-0.3-3.6-0.4c-9.7-0.7-19.4,0.1-28.8,2.4c-9.5,2.4-18.5,6.1-26.9,11.1c-9,5.4-18.4,10.3-28,14.7
		c-4.9,2.2-9.9,4.2-15,5.9c-1.3,0.4-2.6,0.8-3.9,1.2l-4,1.1c-1.3,0.4-2.7,0.6-4,1c-1.3,0.4-2.7,0.6-4.1,0.7
		c-5.7-0.1-11.6-0.8-17.1-3.2c-2.7-1.2-5.2-2.9-7.2-5.1c-1-1.1-1.8-2.3-2.4-3.5c-0.6-1.2-1-2.6-1.2-3.9
		C860.4,260.4,862.4,262.1,864.7,263z"/>
	<path class="st1" d="M965,832.1c-11.1,1.5-22.1,3.5-33,6.2c-32.7,7.8-63.9,21-92.3,39.1c-4.6,3.1-9.3,6.1-13.8,9.5l-3.4,2.6
		l-1.7,1.2c-0.6,0.4-1.1,0.9-1.6,1.3l-6.5,5.3c-8.6,7.1-16.7,14.8-24.3,23l-3.3,2.6l-1.7,1.3l-1.6,1.4c-2.2,1.8-4.3,3.7-6.5,5.5
		s-4.3,3.8-6.5,5.7s-4.3,3.8-6.5,5.8c4.9-10.6,10.8-20.8,17.4-30.4c8-8.5,16.4-16.5,25.4-24l6.8-5.5c0.6-0.5,1.1-0.9,1.7-1.4
		l1.8-1.3l3.5-2.6c4.6-3.6,9.5-6.7,14.4-10c9.8-6.2,20-12,30.4-17.1c20.9-10.1,42.9-18,65.5-23.6l8.5-2l8.5-1.8
		c2.9-0.5,5.7-1,8.6-1.5c1.4-0.2,2.9-0.4,4.3-0.7c1.4-0.4,2.9-0.6,4.3-0.6c5.9,0,11.7,0.3,17.6,0.8c5.8,0.5,11.6,1.3,17.3,2.5
		C986.9,826,975.9,828.9,965,832.1z"/>
	<path class="st1" d="M886.3,877c-1,0.5-2,0.9-3,1.3c-1,0.4-2,0.9-3,1.3c-1.9,0.9-3.9,1.8-5.8,2.8c-3.8,1.9-7.7,3.9-11.4,6.1
		c-7.5,4.2-14.8,8.8-21.9,13.8s-14,10.3-20.6,15.8s-13.1,11.3-19.3,17.4s-12.2,12.3-17.9,18.9c-1.4,1.6-2.9,3.2-4.3,4.9l-4.2,5
		c-2.9,3.3-5.4,6.8-8.2,10.2c-1.7,1.4-3.3,2.9-5,4.4s-3.3,2.9-5.1,4.4c-3.3,3-6.7,6-10.2,8.9c1.6-4.3,3.2-8.6,5-12.7
		s3.8-8.3,5.8-12.4c0.6-1,1.2-1.9,2.1-2.7c0.7-0.8,1.4-1.7,2.1-2.6l2.1-2.6l2.2-2.6l4.3-5.2c1.4-1.7,3-3.4,4.4-5
		c5.9-6.8,12.1-13.3,18.5-19.5s13.1-12.2,20-18s14-11.2,21.4-16.4s15-10,22.9-14.4c7.9-4.4,16-8.5,24.3-12.1c4.5-1,9-1.8,13.6-2.3
		c4.6-0.6,9.2-0.8,13.8-0.6C900.9,867.3,893.4,872.1,886.3,877z"/>
	<path class="st1" d="M46.7,774.2c6.1-0.5,12.2-0.6,18.3-0.3c1.5,0.2,3,0.5,4.5,0.9l4.4,1c1.4,0.4,3,0.7,4.4,1.1l4.4,1.2
		c2.9,0.8,5.8,1.8,8.7,2.6c1.5,0.5,2.9,1,4.3,1.5l4.3,1.5c22.7,8.7,43.8,21,62.5,36.5c9.2,7.8,17.9,16.2,26,25.2
		c2,2.3,3.9,4.6,5.9,6.9l2.9,3.5c0.9,1.2,1.8,2.4,2.8,3.6l5.5,7.2c1.8,2.4,3.4,5,5.2,7.4c6.8,9.9,13,20.2,18.6,30.9
		c2,5.7,3.8,11.5,5.5,17.3c0.8,2.9,1.5,5.8,2.2,8.8s1.4,5.8,2,8.8c-1.8-2.5-3.4-4.9-5.1-7.4s-3.2-5-4.9-7.4s-3.5-4.8-5.2-7.2
		l-2.5-3.6c-0.8-1.2-1.7-2.4-2.6-3.6c-5.4-10.2-11.4-20.1-17.9-29.7c-1.6-2.4-3.2-4.8-4.9-7.1l-5.2-6.9c-0.9-1.1-1.7-2.3-2.6-3.4
		l-2.8-3.3c-1.9-2.2-3.7-4.4-5.6-6.6c-7.7-8.5-16-16.5-24.8-23.9c-17.7-14.7-37.6-26.4-59.1-34.5c-10.7-4-21.7-7.1-33-9.1
		c-5.5-1.8-11-3.5-16.7-5l-4.3-1.1c-1.4-0.3-2.9-0.7-4.3-1c-2.9-0.6-5.8-1.2-8.8-1.6C34.6,775.6,40.6,774.6,46.7,774.2z"/>
</g>
</svg>
