<?xml version="1.0" encoding="utf-8"?>
<!-- Generator: Adobe Illustrator 23.0.0, SVG Export Plug-In . SVG Version: 6.00 Build 0)  -->
<!DOCTYPE svg PUBLIC "-//W3C//DTD SVG 1.1//EN" "http://www.w3.org/Graphics/SVG/1.1/DTD/svg11.dtd" [
	<!ENTITY ns_extend "http://ns.adobe.com/Extensibility/1.0/">
	<!ENTITY ns_ai "http://ns.adobe.com/AdobeIllustrator/10.0/">
	<!ENTITY ns_graphs "http://ns.adobe.com/Graphs/1.0/">
	<!ENTITY ns_vars "http://ns.adobe.com/Variables/1.0/">
	<!ENTITY ns_imrep "http://ns.adobe.com/ImageReplacement/1.0/">
	<!ENTITY ns_sfw "http://ns.adobe.com/SaveForWeb/1.0/">
	<!ENTITY ns_custom "http://ns.adobe.com/GenericCustomNamespace/1.0/">
	<!ENTITY ns_adobe_xpath "http://ns.adobe.com/XPath/1.0/">
]>
<svg version="1.1" id="Layer_1" xmlns:x="&ns_extend;" xmlns:i="&ns_ai;" xmlns:graph="&ns_graphs;"
	 xmlns="http://www.w3.org/2000/svg" xmlns:xlink="http://www.w3.org/1999/xlink" x="0px" y="0px" viewBox="0 0 1894.7 1197.4"
	 style="enable-background:new 0 0 1894.7 1197.4;" xml:space="preserve">
<style type="text/css">
	.st0{fill-rule:evenodd;clip-rule:evenodd;fill:url(#SVGID_1_);}
	.st1{fill:#6A0DAD;}
	.st2{display:none;}
	.st3{display:inline;}
	.st4{fill:#150937;}
	.st5{font-family:'Lato-Black';}
	.st6{font-size:85.789px;}
	.st7{font-family:'Lato-Regular';}
	.st8{font-size:53.4894px;}
	.st9{font-size:28.121px;}
	.st10{fill:none;stroke:#000000;stroke-width:5;stroke-miterlimit:10;}
</style>
<metadata>
	<x:xmpmeta  xmlns:x="adobe:ns:meta/">
		<rdf:RDF  xmlns:rdf="http://www.w3.org/1999/02/22-rdf-syntax-ns#">
			
				<rdf:Description  rdf:about="" xmlns:dc="http://purl.org/dc/elements/1.1/" xmlns:illustrator="http://ns.adobe.com/illustrator/1.0/" xmlns:pdf="http://ns.adobe.com/pdf/1.3/" xmlns:pdfx="http://ns.adobe.com/pdfx/1.3/" xmlns:stDim="http://ns.adobe.com/xap/1.0/sType/Dimensions#" xmlns:stEvt="http://ns.adobe.com/xap/1.0/sType/ResourceEvent#" xmlns:stRef="http://ns.adobe.com/xap/1.0/sType/ResourceRef#" xmlns:xmp="http://ns.adobe.com/xap/1.0/" xmlns:xmpG="http://ns.adobe.com/xap/1.0/g/" xmlns:xmpGImg="http://ns.adobe.com/xap/1.0/g/img/" xmlns:xmpMM="http://ns.adobe.com/xap/1.0/mm/" xmlns:xmpTPg="http://ns.adobe.com/xap/1.0/t/pg/">
				<dc:format>image/svg+xml</dc:format>
				<dc:title>
					<rdf:Alt>
						<rdf:li>black friday splash</rdf:li>
					</rdf:Alt>
				</dc:title>
				<xmp:MetadataDate>2019-12-03T01:37:36+06:00</xmp:MetadataDate>
				<xmp:ModifyDate>2019-12-03T01:37:36+06:00</xmp:ModifyDate>
				<xmp:CreateDate>2019-12-03T01:37:35+06:00</xmp:CreateDate>
				<xmp:CreatorTool>Adobe Illustrator CC 23.0 (Windows)</xmp:CreatorTool>
				<xmp:Thumbnails>
					<rdf:Alt>
						<rdf:li  rdf:parseType="Resource">
							<xmpGImg:width>256</xmpGImg:width>
							<xmpGImg:height>172</xmpGImg:height>
							<xmpGImg:format>JPEG</xmpGImg:format>
							<xmpGImg:image>/9j/4AAQSkZJRgABAgEASABIAAD/7QAsUGhvdG9zaG9wIDMuMAA4QklNA+0AAAAAABAASAAAAAEA
AQBIAAAAAQAB/+4ADkFkb2JlAGTAAAAAAf/bAIQABgQEBAUEBgUFBgkGBQYJCwgGBggLDAoKCwoK
DBAMDAwMDAwQDA4PEA8ODBMTFBQTExwbGxscHx8fHx8fHx8fHwEHBwcNDA0YEBAYGhURFRofHx8f
Hx8fHx8fHx8fHx8fHx8fHx8fHx8fHx8fHx8fHx8fHx8fHx8fHx8fHx8fHx8f/8AAEQgArAEAAwER
AAIRAQMRAf/EAaIAAAAHAQEBAQEAAAAAAAAAAAQFAwIGAQAHCAkKCwEAAgIDAQEBAQEAAAAAAAAA
AQACAwQFBgcICQoLEAACAQMDAgQCBgcDBAIGAnMBAgMRBAAFIRIxQVEGE2EicYEUMpGhBxWxQiPB
UtHhMxZi8CRygvElQzRTkqKyY3PCNUQnk6OzNhdUZHTD0uIIJoMJChgZhJRFRqS0VtNVKBry4/PE
1OT0ZXWFlaW1xdXl9WZ2hpamtsbW5vY3R1dnd4eXp7fH1+f3OEhYaHiImKi4yNjo+Ck5SVlpeYmZ
qbnJ2en5KjpKWmp6ipqqusra6voRAAICAQIDBQUEBQYECAMDbQEAAhEDBCESMUEFURNhIgZxgZEy
obHwFMHR4SNCFVJicvEzJDRDghaSUyWiY7LCB3PSNeJEgxdUkwgJChgZJjZFGidkdFU38qOzwygp
0+PzhJSktMTU5PRldYWVpbXF1eX1RlZmdoaWprbG1ub2R1dnd4eXp7fH1+f3OEhYaHiImKi4yNjo
+DlJWWl5iZmpucnZ6fkqOkpaanqKmqq6ytrq+v/aAAwDAQACEQMRAD8A9U4q7FXYq7FXYq7FXYq7
FXYq7FXYq7FXYq7FVk8QlheM9GFPp7YqxyhBoeo64quGKrhiq8YquGKrhiq8YquGKrhiq8YquGKr
hiq8YquGKrhiq8YquGKt4q7FXYq7FXYq7FXYq7FXYq7FXYq7FXYq7FXYqx24p9Ykp05tT78VWjFV
wxVeMVXDFVwxVeMVXDFVwxVeMVXDFVwxVeMVXDFVwxVeMVXDFW8VdirsVdirsVdirsVdirsVdirs
VdirsVdiq2WQRxO5/ZBP3YqxSxv7a/g+s20nqxF5EDjoWjdo2p/slOSnAxNHmmUSNiiRkULhiq8Y
quGKrhiq8YquGKrhiq8YquGKrhiq8YquGKrhiq8YquGKt4q7FXYq7FXYq7FXYq7FXYq7FXYq7FXY
q7FUHrJl/Rk4iNJStEPYEnbCKvdQ8z/J2US/lxozA8iFmVievJZ5Aa/Tmw7VFaiXw+4OTqx+8LNB
mucZcMVXjFVwxVcMVXjFVwxVcMVXjFVwxVcMVXjFVwxVcMVXjFVwxVvFXYq7FXYq7FXYq7FXYq7F
XYq7FXYq7FXYqpXcRltpEHUjb5jcYq8h/L6UaJ5g17ybcfAYbh9S0muwezujUqnj6T7H3zaa4eJj
hmHUcMveP1uXnHFGM/gfez8Zq3EXDFV4xVcMVXDFV4xVcMVXDFV4xVcMVXDFV4xVcMVXDFV4xVcM
VbxV2KuxV2KuxV2KuxV2KuxV2KuxV2KuxV2KuxVgP5keRLvVPq2uaFMLTzFpTGWynP2WB+3DL4xy
fh8q5naPVCFwmLxy5/rDfhyiNiX0lLfKX5gWOsTHStRiOk+ZYNrnSbj4WJHVoWO0ikbinb23x1Wh
ljHHH1YzykP09y5cBjuN497LhmC0Lxiq4YquGKrxiq4YquGKrxiq4YquGKrxiq4YquGKrxiq4Yq3
irsVdirsVdirsVdirsVdirsVdirsVdirsVdirsVYx5n8maFqjRz3tjFcGE8opSKSxEGtY5Fo6b/y
nLsWonj+k1f45M4ZJR5FfDGsUSxqWKoAoLsztQbbsxLE+5OVE2bYFVGBVwxVcMVXjFVwxVcMVXjF
VwxVcMVXjFVwxVcMVXjFVwxVvFXYq7FXYq7FXYq7FXYq7FXYq7FXYq7FXYq7FXYq4gEUO4PUYqlF
9aei/Jf7tunsfDFUOMVXDFVwxVeMVXDFVwxVeMVXDFVwxVeMVXDFVwxVeMVXDFW8VdirsVdirsVd
irsVdirsVdirsVdirsVdirsVdirsVWTRLLGyN0PfwOKpIyMjlW6rscVbGKrhiq8YquGKrhiq8Yqu
GKrhiq8YquGKrhiq8YquGKt4q7FXYq7FXYq7FXYq7FXYq7FXYq7FXYq7FXYq7FXYq7FUr1JONxyH
7Yr9I2xVDDFVwxVeMVXDFVwxVeMVXDFVwxVeMVXDFVwxVeMVXDFW8VdirsVdirsVdirsVdirsVdi
rsVdirsVdirsVdirsVdiqX6p9uP5HFUEMVXDFV4xVcMVXDFV4xVcMVXDFV4xVcMVXDFV4xVcMVbx
V2KuxV2KuxV2KuxV2KuxV2KuxV2KuxV2KuxV2KuxV2KpTfyh7kgdEHH7uuKqAxVcMVXjFVwxVcMV
XjFVwxVcMVXjFVwxVcMVXjFVwxVvFXYq7FXYq7FXYq7FXYq7FXYq7FXYq7FXYq7FXYq7FVC8uRBE
SPttso/jiqTgkmp64quGKrhiq8YquGKrhiq8YquGKrhiq8YquGKrhiq8YquGKsQ1T8ydO0uA3F9A
YoBWslXYCnjwjamW4sMshqIssoQMjQUtD/NzybrEgjtL2N5W2ESuvqf8i24P+GWZtHlx/VEhnPDO
PMMvtb21uk528gcdwOo+YO+YzUrYq7FXYq7FXYq7FXYq7FXYq7FXYq7FXYqo3N1HAlWNWP2V7nFX
mN/5wvPNPmSTy/oDsLO0amu6zH9iJR/x7W7j/dr9C37O5G/TYx0wxY/Eycz9Mf0ny+9yRi4I8Uuf
QMzijSONY41CogCoo2AA2AAzXk24yoMCrhiq8YquGKrhiq8YquGKrhiq8YquGKrhiq8YquGKvNxi
qTax5L8r6wrfX9OheQ7/AFhF9OUHx9ROLfjmVh1ubF9Mj+j5NsM848ikiz+cPIkou4bibXfLkW8o
f4r61T+YN/u1FHUH8BvmaPB1W1DHl/2Mv1FvHBl/oz+wvYvKfmvTfMemRXtlMsqyLyDJ0YdK0O4I
OxB3BzWZcUscjGQohxZwMTR5p3lbF2KuxV2KuxV2KuxV2KuxVxIAqdh44qh5NQtI+sgJ8F3/AFYq
xbzJ+aHlbQ0YXuoQwSDpDyEk58OMKcm/DMrBo8uX6Yn9HzbYYZy5BhM95528+s0VtHN5b8sSGk17
OOOoXSHqsSf7qRh+0foruMzBHDptzWTL3fwj397eBDFz9UvsDNdB0HStB0yLTdLt1t7SEbKOrMer
O3VmPcnNdmzzyyMpGy405mRspmMqYLhiq4YqvGKrhiq4YqvGKrhiq4YqvGKrhiq4YqvGKrhirzcY
quGKrsVYQzSfl75mi1WyPp+V9UmC30A+xaXLbLMoHSOTo3h/wIzcQP5vHwn++gNv6Q7vf+O9zAfG
jR+uPLzD3WxvIry2SePow3Hge4zTuGr4q7FXYq7FXYq7FXYqhr+8FrBzAq7GiD3xV435m/MDXdYv
r600O+i0zRtLJTV/M1yoeNJB1htoz8Lv2/zBO4waOEAJZAZTl9MB957nMx4REAyFk8o/rYzpWjx+
ZLlGS11/zFp0ho+qahe/UrVhWnKGIAMU9hvmZly+COePHLujHiPxLfKfAOcYnuAsvT9D8h+T9DdZ
NL0m3gmT7M5X1JR8pJC7/jmlza3Nk2lIkODPPOXMsgGYrUuGKrxiq4YquGKrxiq4YquGKrxiq4Yq
uGKrxiq4YquGKrxiq4Yq83GKrhiq4Yqh9V0uz1XTbjTrxOdtdIY5F70PQj3B3GWYcsschKPMMoTM
TYR35ezX2j6ba6bqMnqGFfqxmrXksRKRSn3aMLy98nqZxlkMo8jv+v7WWWQMiR1Z/lDW7FXYq7FX
Yq7FXYqwv82NZn0nylf3ttX61Dbv6BXqJJSI42HyZq5laLEMmaMTyttwQ4pgF5Z5V8qw6lrVvoFy
gfQfKEUTXVud0utVuF9SR5P5hHU7H9Rza6nVGEDkH15brygP1uXly8MeIfVP7A9eUBQABQAUAHSm
aB168YquGKrhiq8YquGKrhiq8YquGKrhiq8YquGKrhiq8YquGKrhiq8YquGKvNxiq4YquGKrxiq4
YqyfQdVEyC1mP71B+7Y/tAdvmMVTnFXYq7FXYq7FXMwVSzGgG5JxVhvma1TW4mgcgQmWB6EVqkEy
Slf9lwp9OW4cnBK/I/aKZQlwm0u8veXYdHuNXmR+bapevesx6jmqjh9BByefUHIIj+bGmWTJxV5C
k6GY7WvGKrhiq4YqvGKrhiq4YqvGKrhiq4YqvGKrhiq4YqvGKrhiq4YqvGKrhirzcYquGKrhiq8Y
quGKr0ZlYMpIYGoI6g4qyXS9ejlAiuiEl6CTorfPwOKpx1xV2KuxVZNPDCnOVwi+/wDDFUj1DVWu
P3cVVh7+LfPFUCMVXDFVwxVeMVXDFVwxVeMVXDFVwxVeMVXDFVwxVeMVXDFVwxVeMVXDFVwxVeMV
XDFXm4xVcMVXDFV4xVcMVXDFV4xVF2uo3tuAIpSF/kO4+44qjl8xX1N0jPvRv+asVWSa5qDigZU/
1R/WuKoR5JJG5SMXbxY1OKtjFVwxVcMVXDFV4xVcMVXDFV4xVcMVXDFV4xVcMVXDFV4xVcMVXDFV
4xVcMVXDFV4xVcMVebjFVwxVcMVXjFVwxVcMVXjFVwxVcMVXjFVwxVeMVXDFVwxVcMVXjFVwxVcM
VXjFVwxVcMVXjFVwxVcMVXjFVwxVcMVXjFVwxVcMVXjFVwxVhI/w3/y+f8ksVXD/AA5/y+f8ksVX
D/Dv/L3/AMksVbH+Hv8Al7/5JYquH+H/APl7/wCSeKrh+gf+Xr/kniq4foL/AJev+SeKtj9B/wDL
1/yTxVcP0J/y8/8AJPFVw/Qv/Lz/AMk8VXD9Df8ALx/wmKtj9Ef8vH/CYquH6J/5eP8AhMVXD9Ff
8X/8Jiq4fov/AIv/AOExVsfoz/i7/hMVXD9G/wDF3/C4quH6O/4u/wCFxVcP0f8A8W/8LirY+o/8
W/8AC4quH1L/AIt/4XFVw+p/8Wf8Liq4fVP+LP8AhcVbH1X/AC/wxVcPq3+X+GKrh9X/AMv8MVXD
0f8AK/DFWx6X+V+GKrh6fv8Ahiq4cPfFVw4++KtimKv/2Q==
								</xmpGImg:image>
						</rdf:li>
					</rdf:Alt>
				</xmp:Thumbnails>
				<xmpMM:InstanceID>xmp.iid:75ec1713-b28b-784c-af08-3826aa0335cb</xmpMM:InstanceID>
				<xmpMM:DocumentID>xmp.did:75ec1713-b28b-784c-af08-3826aa0335cb</xmpMM:DocumentID>
				<xmpMM:OriginalDocumentID>uuid:5D20892493BFDB11914A8590D31508C8</xmpMM:OriginalDocumentID>
				<xmpMM:RenditionClass>proof:pdf</xmpMM:RenditionClass>
				<xmpMM:DerivedFrom  rdf:parseType="Resource">
					<stRef:instanceID>xmp.iid:9cddc0cd-a404-47c7-bbca-e3aa0d13d963</stRef:instanceID>
					<stRef:documentID>xmp.did:9cddc0cd-a404-47c7-bbca-e3aa0d13d963</stRef:documentID>
					<stRef:originalDocumentID>uuid:5D20892493BFDB11914A8590D31508C8</stRef:originalDocumentID>
					<stRef:renditionClass>proof:pdf</stRef:renditionClass>
				</xmpMM:DerivedFrom>
				<xmpMM:History>
					<rdf:Seq>
						<rdf:li  rdf:parseType="Resource">
							<stEvt:action>saved</stEvt:action>
							<stEvt:instanceID>xmp.iid:D661E3FADC35E8119A17D3E2FCB057EF</stEvt:instanceID>
							<stEvt:when>2018-04-02T19:25:54+02:00</stEvt:when>
							<stEvt:softwareAgent>Adobe Illustrator CS6 (Windows)</stEvt:softwareAgent>
							<stEvt:changed>/</stEvt:changed>
						</rdf:li>
						<rdf:li  rdf:parseType="Resource">
							<stEvt:action>saved</stEvt:action>
							<stEvt:instanceID>xmp.iid:FAEFA82E543AE8119121DDD84A5A35F3</stEvt:instanceID>
							<stEvt:when>2018-04-07T13:49:09+02:00</stEvt:when>
							<stEvt:softwareAgent>Adobe Illustrator CS6 (Windows)</stEvt:softwareAgent>
							<stEvt:changed>/</stEvt:changed>
						</rdf:li>
						<rdf:li  rdf:parseType="Resource">
							<stEvt:action>converted</stEvt:action>
							<stEvt:parameters>from application/postscript to application/vnd.adobe.illustrator</stEvt:parameters>
						</rdf:li>
						<rdf:li  rdf:parseType="Resource">
							<stEvt:action>converted</stEvt:action>
							<stEvt:parameters>from application/postscript to application/vnd.adobe.illustrator</stEvt:parameters>
						</rdf:li>
						<rdf:li  rdf:parseType="Resource">
							<stEvt:action>saved</stEvt:action>
							<stEvt:instanceID>xmp.iid:4596ADA05C88E81195CDFF9CF8BD92B2</stEvt:instanceID>
							<stEvt:when>2018-07-15T21:17:07+02:00</stEvt:when>
							<stEvt:softwareAgent>Adobe Illustrator CS6 (Windows)</stEvt:softwareAgent>
							<stEvt:changed>/</stEvt:changed>
						</rdf:li>
						<rdf:li  rdf:parseType="Resource">
							<stEvt:action>converted</stEvt:action>
							<stEvt:parameters>from application/postscript to application/vnd.adobe.illustrator</stEvt:parameters>
						</rdf:li>
						<rdf:li  rdf:parseType="Resource">
							<stEvt:action>converted</stEvt:action>
							<stEvt:parameters>from application/postscript to application/vnd.adobe.illustrator</stEvt:parameters>
						</rdf:li>
						<rdf:li  rdf:parseType="Resource">
							<stEvt:action>saved</stEvt:action>
							<stEvt:instanceID>xmp.iid:266ce172-414a-ef4c-b0c7-ec91e92767c1</stEvt:instanceID>
							<stEvt:when>2018-10-10T17:47:46+02:00</stEvt:when>
							<stEvt:softwareAgent>Adobe Illustrator CC 22.1 (Windows)</stEvt:softwareAgent>
							<stEvt:changed>/</stEvt:changed>
						</rdf:li>
						<rdf:li  rdf:parseType="Resource">
							<stEvt:action>converted</stEvt:action>
							<stEvt:parameters>from application/postscript to application/vnd.adobe.illustrator</stEvt:parameters>
						</rdf:li>
						<rdf:li  rdf:parseType="Resource">
							<stEvt:action>converted</stEvt:action>
							<stEvt:parameters>from application/postscript to application/vnd.adobe.illustrator</stEvt:parameters>
						</rdf:li>
						<rdf:li  rdf:parseType="Resource">
							<stEvt:action>saved</stEvt:action>
							<stEvt:instanceID>xmp.iid:3d8b8746-660e-4d4c-9df9-462a4609f5ae</stEvt:instanceID>
							<stEvt:when>2018-11-08T16:28:54+01:00</stEvt:when>
							<stEvt:softwareAgent>Adobe Illustrator CC 22.1 (Windows)</stEvt:softwareAgent>
							<stEvt:changed>/</stEvt:changed>
						</rdf:li>
						<rdf:li  rdf:parseType="Resource">
							<stEvt:action>saved</stEvt:action>
							<stEvt:instanceID>xmp.iid:cf33bc70-6a51-f54c-a44f-bb9c8174f164</stEvt:instanceID>
							<stEvt:when>2018-11-08T16:47:43+01:00</stEvt:when>
							<stEvt:softwareAgent>Adobe Illustrator CC 22.1 (Windows)</stEvt:softwareAgent>
							<stEvt:changed>/</stEvt:changed>
						</rdf:li>
						<rdf:li  rdf:parseType="Resource">
							<stEvt:action>converted</stEvt:action>
							<stEvt:parameters>from application/postscript to application/vnd.adobe.illustrator</stEvt:parameters>
						</rdf:li>
						<rdf:li  rdf:parseType="Resource">
							<stEvt:action>converted</stEvt:action>
							<stEvt:parameters>from application/postscript to application/vnd.adobe.illustrator</stEvt:parameters>
						</rdf:li>
						<rdf:li  rdf:parseType="Resource">
							<stEvt:action>saved</stEvt:action>
							<stEvt:instanceID>xmp.iid:e54e02ea-c048-0f47-8df0-f4687721b2e1</stEvt:instanceID>
							<stEvt:when>2018-12-06T19:04:39+01:00</stEvt:when>
							<stEvt:softwareAgent>Adobe Illustrator CC 22.1 (Windows)</stEvt:softwareAgent>
							<stEvt:changed>/</stEvt:changed>
						</rdf:li>
						<rdf:li  rdf:parseType="Resource">
							<stEvt:action>converted</stEvt:action>
							<stEvt:parameters>from application/postscript to application/vnd.adobe.illustrator</stEvt:parameters>
						</rdf:li>
						<rdf:li  rdf:parseType="Resource">
							<stEvt:action>saved</stEvt:action>
							<stEvt:instanceID>xmp.iid:16b2ee40-64d7-4151-afec-70f7131b3d4c</stEvt:instanceID>
							<stEvt:when>2019-10-08T18:22:10+02:00</stEvt:when>
							<stEvt:softwareAgent>Adobe Illustrator CC 2017 (Macintosh)</stEvt:softwareAgent>
							<stEvt:changed>/</stEvt:changed>
						</rdf:li>
						<rdf:li  rdf:parseType="Resource">
							<stEvt:action>saved</stEvt:action>
							<stEvt:instanceID>xmp.iid:9cddc0cd-a404-47c7-bbca-e3aa0d13d963</stEvt:instanceID>
							<stEvt:when>2019-10-30T13:30:59+01:00</stEvt:when>
							<stEvt:softwareAgent>Adobe Illustrator CC 2017 (Macintosh)</stEvt:softwareAgent>
							<stEvt:changed>/</stEvt:changed>
						</rdf:li>
						<rdf:li  rdf:parseType="Resource">
							<stEvt:action>converted</stEvt:action>
							<stEvt:parameters>from application/postscript to application/vnd.adobe.illustrator</stEvt:parameters>
						</rdf:li>
						<rdf:li  rdf:parseType="Resource">
							<stEvt:action>saved</stEvt:action>
							<stEvt:instanceID>xmp.iid:75ec1713-b28b-784c-af08-3826aa0335cb</stEvt:instanceID>
							<stEvt:when>2019-12-03T01:37:36+06:00</stEvt:when>
							<stEvt:softwareAgent>Adobe Illustrator CC 23.0 (Windows)</stEvt:softwareAgent>
							<stEvt:changed>/</stEvt:changed>
						</rdf:li>
					</rdf:Seq>
				</xmpMM:History>
				<illustrator:StartupProfile>Print</illustrator:StartupProfile>
				<xmpTPg:HasVisibleOverprint>False</xmpTPg:HasVisibleOverprint>
				<xmpTPg:HasVisibleTransparency>False</xmpTPg:HasVisibleTransparency>
				<xmpTPg:NPages>1</xmpTPg:NPages>
				<xmpTPg:MaxPageSize  rdf:parseType="Resource">
					<stDim:w>1791.958486</stDim:w>
					<stDim:h>1197.388300</stDim:h>
					<stDim:unit>Pixels</stDim:unit>
				</xmpTPg:MaxPageSize>
				<xmpTPg:PlateNames>
					<rdf:Seq>
						<rdf:li>Cyan</rdf:li>
						<rdf:li>Magenta</rdf:li>
						<rdf:li>Yellow</rdf:li>
						<rdf:li>Black</rdf:li>
					</rdf:Seq>
				</xmpTPg:PlateNames>
				<xmpTPg:SwatchGroups>
					<rdf:Seq>
						<rdf:li  rdf:parseType="Resource">
							<xmpG:groupName>Default Swatch Group</xmpG:groupName>
							<xmpG:groupType>0</xmpG:groupType>
						</rdf:li>
						<rdf:li  rdf:parseType="Resource">
							<xmpG:groupName>Grises</xmpG:groupName>
							<xmpG:groupType>1</xmpG:groupType>
							<xmpG:Colorants>
								<rdf:Seq>
									<rdf:li  rdf:parseType="Resource">
										<xmpG:swatchName>C=0 M=0 Y=0 K=100</xmpG:swatchName>
										<xmpG:mode>RGB</xmpG:mode>
										<xmpG:type>PROCESS</xmpG:type>
										<xmpG:red>33</xmpG:red>
										<xmpG:green>25</xmpG:green>
										<xmpG:blue>21</xmpG:blue>
									</rdf:li>
									<rdf:li  rdf:parseType="Resource">
										<xmpG:swatchName>C=0 M=0 Y=0 K=90</xmpG:swatchName>
										<xmpG:mode>RGB</xmpG:mode>
										<xmpG:type>PROCESS</xmpG:type>
										<xmpG:red>68</xmpG:red>
										<xmpG:green>66</xmpG:green>
										<xmpG:blue>66</xmpG:blue>
									</rdf:li>
									<rdf:li  rdf:parseType="Resource">
										<xmpG:swatchName>C=0 M=0 Y=0 K=80</xmpG:swatchName>
										<xmpG:mode>RGB</xmpG:mode>
										<xmpG:type>PROCESS</xmpG:type>
										<xmpG:red>91</xmpG:red>
										<xmpG:green>91</xmpG:green>
										<xmpG:blue>95</xmpG:blue>
									</rdf:li>
									<rdf:li  rdf:parseType="Resource">
										<xmpG:swatchName>C=0 M=0 Y=0 K=70</xmpG:swatchName>
										<xmpG:mode>RGB</xmpG:mode>
										<xmpG:type>PROCESS</xmpG:type>
										<xmpG:red>114</xmpG:red>
										<xmpG:green>113</xmpG:green>
										<xmpG:blue>118</xmpG:blue>
									</rdf:li>
									<rdf:li  rdf:parseType="Resource">
										<xmpG:swatchName>C=0 M=0 Y=0 K=60</xmpG:swatchName>
										<xmpG:mode>RGB</xmpG:mode>
										<xmpG:type>PROCESS</xmpG:type>
										<xmpG:red>135</xmpG:red>
										<xmpG:green>134</xmpG:green>
										<xmpG:blue>138</xmpG:blue>
									</rdf:li>
									<rdf:li  rdf:parseType="Resource">
										<xmpG:swatchName>C=0 M=0 Y=0 K=50</xmpG:swatchName>
										<xmpG:mode>RGB</xmpG:mode>
										<xmpG:type>PROCESS</xmpG:type>
										<xmpG:red>154</xmpG:red>
										<xmpG:green>153</xmpG:green>
										<xmpG:blue>158</xmpG:blue>
									</rdf:li>
									<rdf:li  rdf:parseType="Resource">
										<xmpG:swatchName>C=0 M=0 Y=0 K=40</xmpG:swatchName>
										<xmpG:mode>RGB</xmpG:mode>
										<xmpG:type>PROCESS</xmpG:type>
										<xmpG:red>174</xmpG:red>
										<xmpG:green>173</xmpG:green>
										<xmpG:blue>179</xmpG:blue>
									</rdf:li>
									<rdf:li  rdf:parseType="Resource">
										<xmpG:swatchName>C=0 M=0 Y=0 K=30</xmpG:swatchName>
										<xmpG:mode>RGB</xmpG:mode>
										<xmpG:type>PROCESS</xmpG:type>
										<xmpG:red>194</xmpG:red>
										<xmpG:green>195</xmpG:green>
										<xmpG:blue>201</xmpG:blue>
									</rdf:li>
									<rdf:li  rdf:parseType="Resource">
										<xmpG:swatchName>C=0 M=0 Y=0 K=20</xmpG:swatchName>
										<xmpG:mode>RGB</xmpG:mode>
										<xmpG:type>PROCESS</xmpG:type>
										<xmpG:red>216</xmpG:red>
										<xmpG:green>217</xmpG:green>
										<xmpG:blue>221</xmpG:blue>
									</rdf:li>
									<rdf:li  rdf:parseType="Resource">
										<xmpG:swatchName>C=0 M=0 Y=0 K=10</xmpG:swatchName>
										<xmpG:mode>RGB</xmpG:mode>
										<xmpG:type>PROCESS</xmpG:type>
										<xmpG:red>237</xmpG:red>
										<xmpG:green>238</xmpG:green>
										<xmpG:blue>240</xmpG:blue>
									</rdf:li>
									<rdf:li  rdf:parseType="Resource">
										<xmpG:swatchName>C=0 M=0 Y=0 K=5</xmpG:swatchName>
										<xmpG:mode>RGB</xmpG:mode>
										<xmpG:type>PROCESS</xmpG:type>
										<xmpG:red>247</xmpG:red>
										<xmpG:green>247</xmpG:green>
										<xmpG:blue>248</xmpG:blue>
									</rdf:li>
								</rdf:Seq>
							</xmpG:Colorants>
						</rdf:li>
					</rdf:Seq>
				</xmpTPg:SwatchGroups>
				<pdf:Producer>Adobe PDF library 15.00</pdf:Producer>
				<pdfx:CreatorVersion>21.0.0</pdfx:CreatorVersion>
			</rdf:Description>
		</rdf:RDF>
	</x:xmpmeta>
	<sfw  xmlns="&ns_sfw;">
		<slices></slices>
		<sliceSourceBounds  bottomLeftOrigin="true" height="1202.3" width="1912.7" x="-107.1" y="-3.6"></sliceSourceBounds>
	</sfw>
</metadata>
<g id="BACKGROUND">
	<g>
		<g id="XMLID_1_">
			
				<linearGradient id="SVGID_1_" gradientUnits="userSpaceOnUse" x1="93.4596" y1="481.85" x2="2006.2083" y2="481.85" gradientTransform="matrix(-1 0 0 1 2001.7192 118)">
				<stop  offset="0" style="stop-color:#C7C7C7"/>
				<stop  offset="1" style="stop-color:#FFFFFF"/>
			</linearGradient>
			<path class="st0" d="M1908.3,1201H-4.5V-1.3l1089.6,0c-16,28.4-24.3,61-22,93.6c3.5,50.1,36.5,99.9,12.8,166.8
				c-5.4,15-11.4,24.8-17.4,33.7c-28.5,31.9-60,61.7-88.8,93.3c-66.2,72.5-100.6,141.2-93.6,217.3c7.8,85.1,76.5,165.5,148.6,202.6
				c77.2,39.7,156.7,29,178.9,83.7c2.1,5.1,3.5,10.3,4.5,15.4c0.2,27.4,4.5,55.4,21.6,84.6c41.3,70.2,135.5,107.4,213.1,100.1
				c84.3-7.9,149.5-77.2,195.8-148.6c39-60.2,74.4-128.7,138-161.2c40.4-20.6,85.9-23.3,131.7-19.1V1201z"/>
		</g>
		<g>
			<g>
				<path class="st1" d="M1064.2,181.6c0.2,1.3,0.2,2.7,0.2,4s0.1,2.7,0.1,4s0.1,2.7,0.1,4l-0.1,4c0,1.3,0,2.7-0.1,4l-0.3,4l-0.3,4
					l-0.5,4l-0.5,4c-0.1,1.3-0.4,2.7-0.6,4l-0.7,4l-0.3,2l-0.5,2c-0.6,2.7-1.1,5.3-1.8,7.9l-2.3,7.8c-0.4,1.3-0.8,2.5-1.3,3.8
					l-1.4,3.8l-1.4,3.8l-1.6,3.7l-1.6,3.7c-0.6,1.3-1.1,2.5-1.7,3.7c-1.2,2.4-2.4,4.9-3.7,7.2c-10.3,18.9-24.6,35.6-41.3,49.2
					c-8.3,6.8-17.3,12.8-26.7,18c-5.2,1.8-10.4,3.4-15.6,4.6s-10.5,2.1-15.8,2.6c9.1-5.5,17.6-11.4,25.6-17.8
					c8.8-4.8,17.1-10.5,24.9-16.8c15.6-12.6,28.8-28.1,38.4-45.7c1.3-2.2,2.4-4.5,3.5-6.7c0.6-1.1,1.1-2.3,1.6-3.4l1.5-3.4l1.5-3.4
					l1.3-3.5l1.3-3.5c0.4-1.2,0.9-2.4,1.2-3.6l2.1-7.2c0.6-2.4,1.1-4.9,1.7-7.3l0.4-1.8l0.3-1.8l0.6-3.7c0.2-1.2,0.5-2.5,0.6-3.7
					l0.4-3.7l0.4-3.7l0.3-3.7l0.3-3.7c0.1-1.3,0.1-2.5,0.1-3.8l0.1-3.8c0-1.3-0.1-2.5-0.1-3.8s0-2.6-0.1-3.8
					c-0.2-1.3-0.4-2.5-0.3-3.8c0.5-5.1,0.8-10.2,1-15.4c0.2-5.2,0.2-10.5,0.1-15.8C1058.2,160.6,1061.7,170.8,1064.2,181.6z"/>
			</g>
			<g>
				<path class="st1" d="M900.7,741.3c3.1,3.2,6.4,6.2,9.6,9.2c1.6,1.6,3.2,3.1,4.8,4.6c1.6,1.5,3.3,2.9,4.9,4.4l4.9,4.4l2.5,2.2
					c0.8,0.7,1.7,1.4,2.5,2.1c12,12.6,25,24.2,39,34.5c13.9,10.3,28.9,19.1,44.6,26.2c7.9,3.4,15.9,6.5,24.2,9
					c8.3,2.5,16.6,4.4,25.2,6c8.6,1.6,17.3,2.8,26.1,4.2c8.9,1.4,17.9,2.9,26.8,5.6c8.9,2.6,17.8,6.5,25.7,11.7
					c7.9,5.3,15,11.6,21,18.9s11,15.4,14.9,23.8c2,4.2,3.7,8.5,5.2,12.9c0.7,2.2,1.4,4.4,2.1,6.6c0.8,2.2,1.5,4.4,1.8,6.7
					c1.3,9.1,1.9,18.3,1.8,27.3c0,4.5-0.2,9-0.5,13.5c-0.4,4.5-0.8,9-1.4,13.4c-0.6-4.4-1.2-8.8-2-13.2c-0.7-4.4-1.5-8.7-2.5-13
					c-1.9-8.6-4.2-17-7.1-25.1c-0.3-1.1-0.6-2.1-0.9-3.1c-0.3-1-0.5-2.1-0.8-3.1c-0.5-2.1-1.2-4.1-1.9-6.1c-1.3-4-2.9-7.9-4.7-11.7
					c-3.5-7.7-7.9-14.8-13.2-21.2s-11.6-12-18.4-16.5c-6.8-4.5-14.4-7.8-22.5-10.2c-8-2.4-16.5-3.9-25.2-5.3
					c-8.7-1.3-17.5-2.6-26.4-4.2s-17.8-3.7-26.5-6.3s-17.2-5.9-25.6-9.5c-16.6-7.5-32.3-16.8-46.9-27.5c-0.9-0.6-1.8-1.3-2.7-2
					l-2.7-2.1l-5.3-4.2c-3.5-2.9-6.9-5.9-10.3-8.8c-3.3-3-6.6-6.1-9.9-9.2c-1.6-1.5-3.1-3.2-4.8-4.7s-3.4-3.1-4.8-4.8
					c-0.7-0.8-1.4-1.7-2.1-2.6l-2-2.7l-4-5.4c-1.4-1.9-2.7-3.7-4-5.5c-1.3-1.9-2.6-3.7-3.8-5.6c-2.5-3.8-5-7.4-7.3-11.3
					c-2.3-3.9-4.6-7.7-6.8-11.6C894.6,735.2,897.7,738.3,900.7,741.3z"/>
			</g>
			<g>
				<path class="st1" d="M1086.5,873.1c3.6,0.8,7.2,1.8,10.7,2.9c1.7,0.5,3.5,1.2,5.2,1.8c1.7,0.6,3.4,1.4,5.1,2.1
					c6.8,3,13.3,6.7,19.3,11.1l4.4,3.4c0.7,0.5,1.4,1.2,2.1,1.8l2.1,1.9l2.1,1.9l1.9,2c1.4,1.3,2.6,2.7,3.8,4.1
					c4.9,5.6,9,11.8,12.5,18.4c3.4,6.6,6.1,13.6,8,20.7c2,7.2,3.2,14.5,3.7,21.8c-0.6,3.8-1.4,7.4-2.5,11c-1,3.6-2.3,7.1-4,10.4
					c-1.4-7.2-3.3-14-5.5-20.5c-0.5-6.6-1.6-13.2-3.3-19.5c-1.7-6.4-4.1-12.5-7.1-18.3c-3.1-5.8-6.7-11.3-11-16.2
					c-1.1-1.2-2.1-2.5-3.3-3.6l-1.7-1.8l-1.8-1.6l-1.8-1.6c-0.6-0.5-1.1-1.1-1.8-1.6l-3.9-3c-5.3-3.8-11-7.1-17-9.7
					c-1.5-0.7-2.9-1.4-4.5-1.9c-1.5-0.5-3-1.1-4.6-1.6c-1.5-0.5-3.1-1-4.7-1.4c-0.8-0.1-1.6-0.4-2.4-0.5c-0.8-0.1-1.6-0.2-2.4-0.5
					c-1.5-0.7-3-1.5-4.6-2.2c-0.8-0.4-1.6-0.8-2.4-1.1c-0.8-0.3-1.6-0.6-2.4-1c-3.3-1.3-6.6-2.6-10.1-3.8
					C1071.6,874.5,1079.1,873.4,1086.5,873.1z"/>
			</g>
			<g>
				<path class="st1" d="M1871,780.3c-1.4,0.3-2.9,0.7-4.3,1l-4.3,1.1c-5.7,1.4-11.3,3.2-16.8,5c-11.3,2-22.4,5.2-33.2,9.2
					c-21.6,8-41.6,20.1-59.4,34.7c-8.8,7.4-17.1,15.5-24.9,24.1c-1.9,2.2-3.7,4.4-5.6,6.6l-2.8,3.3c-1,1.1-1.8,2.3-2.7,3.4l-5.3,6.9
					c-1.8,2.4-3.3,4.8-5,7.2c-6.6,9.6-12.5,19.7-18,29.9c-0.9,1.2-1.8,2.4-2.6,3.6l-2.5,3.6c-1.7,2.4-3.4,4.9-5.2,7.3
					c-1.6,2.5-3.2,5-4.9,7.5c-1.7,2.5-3.3,5-5.1,7.5c0.6-2.9,1.3-5.8,2-8.8c0.7-2.9,1.4-5.9,2.2-8.8c1.7-5.8,3.5-11.7,5.5-17.4
					c5.8-10.6,11.8-21.1,18.7-31c1.8-2.5,3.4-5.1,5.2-7.5l5.5-7.2c1-1.2,1.8-2.4,2.8-3.6l2.9-3.5c2-2.3,3.9-4.6,5.9-6.9
					c8.2-9,16.9-17.5,26.2-25.3c9.4-7.8,19.4-14.8,29.9-21s21.6-11.5,33-15.8l4.3-1.5c1.4-0.5,2.8-1.1,4.3-1.5
					c3-0.8,5.8-1.8,8.8-2.6l4.4-1.2c1.5-0.4,3-0.7,4.5-1.1l4.5-1c1.5-0.4,3-0.8,4.5-0.9c6.1-0.2,12.3-0.2,18.4,0.3
					c6.1,0.4,12.1,1.3,18,2.9C1876.9,779.2,1873.9,779.8,1871,780.3z"/>
			</g>
		</g>
	</g>
</g>
<g id="TEXT" class="st2">
	<g class="st3">
		<text transform="matrix(1 0 0 1 1370.5048 929.4459)" class="st4 st5 st6">BUSINESS</text>
		<text transform="matrix(1 0 0 1 1538.2777 993.0475)" class="st4 st7 st8">START UP</text>
		<text transform="matrix(1 0 0 1 1653.1742 844.8561)" class="st4 st7 st8">2020</text>
		<text transform="matrix(1 0 0 1 1425.8016 1081.7662)" class="st4 st7 st9">YOUR SUBHEADLINE HERE</text>
		<line class="st10" x1="1777.3" y1="1023.4" x2="1619.6" y2="1023.4"/>
	</g>
</g>
</svg>
