<svg xmlns="http://www.w3.org/2000/svg" viewBox="0 0 602.85 515"><defs><style>.cls-1{fill:#ffef26;}.cls-2{fill:#e6007e;}.cls-3{fill:#009fe3;}</style></defs><title>Asset 2</title><g id="Layer_2" data-name="Layer 2"><g id="Layer_1-2" data-name="Layer 1"><path class="cls-1" d="M541.77,288.62c1.49-1.29,2.92-2.53,4.29-3.74q1.82-1.65,3.27-3.09c38.08-39.36,48.41-89.4,50.06-126.07.12-12-.91-27.61-1.77-38.25l-1.35-14.08h0c-6.14-63.58,6.57-84,6.57-84-24,14.86-63.64,18.48-87.16,19.25h0c-3.07.11-5.86.16-8.31.18-11.7.36-33.29,1.43-48.5,4.63-2.2.52-4.39,1.07-6.54,1.63-.46.15-.89.25-1.31.35-2.29.61-4.53,1.22-6.7,1.84-27.75,8.15-45.63,18.94-48.81,20.94-43.54,28-47.24,56.26-47.24,56.26a126.5,126.5,0,0,1,14-10.12c17.78-11.44,33.48-15.78,43.17-17.43,5.12-1.09,18.66-1.72,18.66-1.72h0c7.7-.51,15-.63,20.59-.61h0c2.3-.08,4.94-.08,7.77,0,.35,0,.72,0,1.08,0,8.23.23,17.79.92,24.95,1.53h0l2.29.19c7.24.53,17.62.51,17.84.51a201.39,201.39,0,0,0,27.16-3l-.1.12.07,0-7,27.87c-4.77,18.53-5.14,55.41-5.14,55.41-2.1,25.24-6.17,42.87-10.38,53.44-4.1,11.67-12.54,24.32-14.57,27.28l-.24.35-.21.3h0c-9.74,13.94-23.27,23.63-34,29.71h0c-27.5,16.22-47.35,17.42-47.35,17.42h0c-32.06,5.57-64.26.41-64.26.41,40.07,27.43,86.4,22.41,86.4,22.41q3.12-.14,6.17-.35h0l2.74-.22a225.93,225.93,0,0,0,60.43-13.8A162.9,162.9,0,0,0,541.77,288.62Z"/><path class="cls-2" d="M360,106.92q-1.5-2.53-2.93-4.88-1.31-2.07-2.48-3.76C322.44,54,275,35.09,239.13,27.1c-11.79-2.21-27.35-3.91-38-4.91l-14.1-1.12h0C123.38,16.07,105.44,0,105.44,0c10.46,26.17,7.14,65.88,3.82,89.19h0c-.44,3-.87,5.8-1.27,8.22-1.68,11.58-4.37,33-3.87,48.56.14,2.26.3,4.51.48,6.73.06.48.09.92.11,1.35.2,2.36.42,4.67.65,6.91,3.21,28.75,10.73,48.23,12.15,51.71,20,47.73,47.2,56.29,47.2,56.29a124.83,124.83,0,0,1-7.53-15.57c-8.18-19.49-9.73-35.71-9.67-45.54-.19-5.23,1.54-18.68,1.54-18.68h0c.84-7.66,2-14.9,3-20.38h0c.32-2.27.78-4.88,1.34-7.65.06-.35.13-.71.21-1.07,1.65-8.06,4-17.36,5.83-24.3h0c.21-.77.4-1.51.59-2.22,1.78-7,3.57-17.27,3.61-17.48a201.52,201.52,0,0,0,1.75-27.27l.1.12v-.07l26.23,11.75c17.42,7.91,53.67,14.68,53.67,14.68,24.49,6.45,41.15,13.52,50.83,19.5,10.78,6.07,21.77,16.57,24.33,19.09l.31.3.25.26h0c12.05,12,19.23,27,23.35,38.65h0c11.2,29.9,8.94,49.66,8.94,49.66h0c-.09,32.53-10.76,63.35-10.76,63.35,34-34.7,37.07-81.2,37.07-81.2q.42-3.09.73-6.14h0c.1-.92.18-1.83.27-2.74a225.63,225.63,0,0,0-3.11-61.9A162.39,162.39,0,0,0,360,106.92Z"/><path class="cls-3" d="M149.5,254.37l-5.32,2c-1.51.62-2.88,1.22-4.13,1.79C90.81,282.16,64,325.65,49.9,359.55c-4.22,11.22-8.59,26.25-11.43,36.55l-3.54,13.68h0C18.94,471.62,0,486.5,0,486.5c27.59-5.76,66.12,4.41,88.5,11.73h0c2.92.95,5.56,1.86,7.87,2.67,11.12,3.67,31.78,10,47.15,12.24,2.25.26,4.5.49,6.71.7.49,0,.93.07,1.35.13,2.36.21,4.68.39,6.92.56,28.87,1.83,49.36-2.19,53-3,50.47-11.39,63.63-36.71,63.63-36.71a124,124,0,0,1-16.65,4.71c-20.61,4.68-36.86,3.39-46.52,1.62-5.19-.72-18.13-4.77-18.13-4.77h0c-7.4-2.15-14.32-4.54-19.56-6.46h0c-2.19-.72-4.67-1.62-7.31-2.65-.33-.12-.67-.25-1-.4-7.65-3-16.4-6.95-22.92-10h0L141,456c-6.63-3-16.39-6.51-16.6-6.58a201.93,201.93,0,0,0-26.54-6.47l.14-.07h-.08L114,419c10.82-15.79,23.78-50.32,23.78-50.32,10.6-23,20.46-38.17,28-46.66,7.84-9.56,20.1-18.56,23-20.65l.35-.25.3-.2h0c13.92-9.78,29.95-14.25,42.12-16.29h0c31.39-5.83,50.45-.18,50.45-.18h0c32,5.74,60.52,21.6,60.52,21.6-28.27-39.49-73.52-50.61-73.52-50.61q-3-.94-5.92-1.78h0c-.89-.26-1.77-.5-2.66-.74a225.41,225.41,0,0,0-61.5-7.69A162.36,162.36,0,0,0,149.5,254.37Z"/></g></g></svg>