<svg xmlns="http://www.w3.org/2000/svg" viewBox="0 0 120 102.51"><defs><style>.cls-1{fill:#6a0dad;}</style></defs><title>Asset 3</title><g id="Layer_2" data-name="Layer 2"><g id="Layer_1-2" data-name="Layer 1"><path class="cls-1" d="M71.66,21.28l-.58-1-.5-.75C64.18,10.74,54.73,7,47.6,5.39c-2.35-.44-5.45-.77-7.56-1l-2.81-.23h0C24.56,3.2,21,0,21,0c2.08,5.21,1.42,13.11.76,17.75h0c-.09.61-.17,1.16-.25,1.64a62.56,62.56,0,0,0-.77,9.67c0,.45.05.89.09,1.33,0,.1,0,.19,0,.27,0,.47.09.93.13,1.38a40.89,40.89,0,0,0,2.42,10.29c4,9.5,9.4,11.21,9.4,11.21a24.32,24.32,0,0,1-1.5-3.1,23.27,23.27,0,0,1-1.93-9.07,35,35,0,0,1,.31-3.71h0c.17-1.53.4-3,.59-4.06h0c.07-.46.16-1,.27-1.53a1.55,1.55,0,0,1,0-.21c.33-1.6.8-3.45,1.16-4.84h0l.12-.44c.35-1.4.71-3.44.72-3.48a41.2,41.2,0,0,0,.35-5.43l0,0v0L38.16,20c3.46,1.58,10.68,2.92,10.68,2.92A39.28,39.28,0,0,1,59,26.83a26.56,26.56,0,0,1,4.84,3.8l.06.06,0,0h0a20.68,20.68,0,0,1,4.65,7.69h0c2.23,6,1.78,9.89,1.78,9.89h0A44.39,44.39,0,0,1,68.2,60.93a28.2,28.2,0,0,0,7.38-16.17c0-.41.1-.81.14-1.22h0l.06-.54a45.34,45.34,0,0,0-.62-12.33A32.48,32.48,0,0,0,71.66,21.28Z"/><path class="cls-1" d="M29.76,50.63,28.7,51l-.82.35c-9.8,4.78-15.14,13.43-17.95,20.18-.84,2.23-1.71,5.23-2.27,7.27L7,81.57H7C3.77,93.88,0,96.84,0,96.84c5.49-1.15,13.16.88,17.62,2.33h0q.87.28,1.56.54a63.73,63.73,0,0,0,9.39,2.43l1.33.14.27,0,1.38.11a40.79,40.79,0,0,0,10.56-.6c10-2.26,12.66-7.3,12.66-7.3a23.66,23.66,0,0,1-3.31.93,23.29,23.29,0,0,1-9.26.33c-1-.15-3.61-1-3.61-1h0c-1.47-.43-2.85-.91-3.89-1.29h0c-.44-.14-.93-.32-1.46-.53l-.2-.08c-1.52-.6-3.26-1.38-4.56-2h0l-.42-.19c-1.32-.59-3.26-1.3-3.3-1.31a40.09,40.09,0,0,0-5.28-1.29h0l3.21-4.73c2.15-3.14,4.73-10,4.73-10A39.68,39.68,0,0,1,33,64.1,26.67,26.67,0,0,1,37.6,60l.06,0,.06-.05h0a20.86,20.86,0,0,1,8.39-3.24h0c6.25-1.16,10,0,10,0h0a44.08,44.08,0,0,1,12.05,4.3A28.19,28.19,0,0,0,53.56,50.85l-1.18-.35h0l-.52-.15a45.09,45.09,0,0,0-12.25-1.53A32.41,32.41,0,0,0,29.76,50.63Z"/><path class="cls-1" d="M107.84,57.45l.86-.74.65-.62c7.58-7.83,9.63-17.79,10-25.09,0-2.39-.18-5.5-.35-7.62l-.27-2.8h0C117.47,7.92,120,3.85,120,3.85c-4.77,3-12.67,3.68-17.35,3.83h0l-1.66,0a62.41,62.41,0,0,0-9.65.92c-.44.11-.87.21-1.3.33L89.78,9l-1.34.37a40.49,40.49,0,0,0-9.71,4.17c-8.67,5.57-9.4,11.2-9.4,11.2a24.77,24.77,0,0,1,2.79-2,23.39,23.39,0,0,1,8.59-3.47c1-.21,3.71-.34,3.71-.34h0c1.54-.1,3-.12,4.1-.12h0c.46,0,1,0,1.55,0h.22c1.63.05,3.54.19,5,.31h0l.46,0c1.44.1,3.51.1,3.55.1a40,40,0,0,0,5.41-.6l0,0h0l-1.4,5.55c-1,3.69-1,11-1,11a39,39,0,0,1-2.07,10.63,26,26,0,0,1-2.9,5.43l0,.07,0,.06h0a20.56,20.56,0,0,1-6.77,5.92h0C84.94,60.6,81,60.84,81,60.84h0a44.28,44.28,0,0,1-12.79.09,28.15,28.15,0,0,0,17.2,4.46l1.22-.07h0l.55,0a45.11,45.11,0,0,0,12-2.74A32.23,32.23,0,0,0,107.84,57.45Z"/></g></g></svg>